<svg width="341" height="108" viewBox="0 0 341 108" fill="none" xmlns="http://www.w3.org/2000/svg">
<g clip-path="url(#clip0_4012_19969)">
<path d="M144.798 41.1313V47.3159H166.116L144.798 75.456H178.855V69.2711H157.912L178.855 41.1286H144.798V41.1313ZM208.175 41.1313H194.239C191.116 41.1313 188.6 42.0911 186.683 43.9393C184.766 45.7872 183.809 48.2977 183.809 51.408V65.1359C183.809 68.2465 184.766 70.7447 186.683 72.6313C188.6 74.5176 191.116 75.4631 194.239 75.4631H208.175C211.332 75.4631 213.866 74.5128 215.782 72.5831C217.699 70.6537 218.657 68.1911 218.657 65.1145V51.3862C218.657 48.3096 217.699 45.828 215.782 43.9417C213.866 42.0551 211.332 41.1096 208.175 41.1096V41.1313ZM211.683 65.8511C211.683 66.8662 211.354 67.6847 210.699 68.3161C210.044 68.9471 209.201 69.2592 208.173 69.2592H194.236C193.206 69.2592 192.375 68.9471 191.737 68.3161C191.099 67.6847 190.777 66.8639 190.777 65.8511V50.7311C190.777 49.7231 191.094 48.8975 191.737 48.2688C192.38 47.6399 193.206 47.3206 194.236 47.3206H208.173C209.201 47.3206 210.044 47.6327 210.699 48.2688C211.354 48.9046 211.683 49.7183 211.683 50.7311V65.8511ZM292.045 65.7407C292.045 66.7871 291.728 67.6606 291.087 68.2848C290.447 68.9087 289.614 69.2521 288.586 69.2521H274.649C273.621 69.2521 272.778 68.9281 272.123 68.2848C271.468 67.6416 271.139 66.7871 271.139 65.7407V41.1262H264.173V65.1359C264.173 68.2128 265.137 70.704 267.095 72.6048C269.054 74.5057 271.553 75.4848 274.678 75.4848H288.615C291.733 75.4848 294.254 74.5417 296.166 72.6527C298.078 70.7641 299.04 68.2679 299.04 65.1576V41.1262H292.074V65.7648L292.045 65.7407ZM330.042 55.1808H314.453C313.423 55.1808 312.583 54.8687 311.925 54.2326C311.267 53.5968 310.943 52.7879 310.943 51.7703V50.7216C310.943 49.7136 311.26 48.888 311.901 48.2593C312.541 47.6303 313.372 47.3111 314.4 47.3111H329.745C330.809 47.3111 331.659 47.6232 332.297 48.2593C332.935 48.8951 333.255 49.7088 333.255 50.7216V51.4056H340.22C340.22 49.3801 339.787 47.5655 338.915 46.0297C338.077 44.5062 336.813 43.2509 335.274 42.4127C333.715 41.5606 331.903 41.1286 329.847 41.1286H314.156C311.106 41.1286 308.651 42.0456 306.79 43.8816C304.93 45.7176 303.997 48.1391 303.997 51.1417C303.997 54.2567 304.922 56.7336 306.763 58.5862C308.605 60.4392 311.075 61.3705 314.159 61.3705H329.747C330.809 61.3705 331.662 61.6897 332.299 62.3401C332.938 62.9905 333.259 63.8161 333.259 64.8312V65.8776C333.259 66.8927 332.938 67.7112 332.299 68.3422C331.662 68.9736 330.809 69.2857 329.747 69.2857H314.402C313.372 69.2857 312.539 68.9736 311.901 68.3422C311.262 67.7112 310.943 66.8903 310.943 65.8776V65.1433H303.977C303.977 68.2536 304.934 70.7519 306.851 72.6385C308.768 74.5247 311.284 75.4702 314.407 75.4702H330.044C333.094 75.4702 335.549 74.5536 337.412 72.7176C339.275 70.8816 340.204 68.4648 340.204 65.4575C340.204 62.3377 339.283 59.8177 337.439 57.9623C335.595 56.1073 333.128 55.1856 330.042 55.1856V55.1808ZM259.219 51.408C259.219 48.3313 258.261 45.8497 256.344 43.9631C254.427 42.0768 251.894 41.1313 248.738 41.1313H223.598V66.1921L230.565 75.4655V61.3681H242.426L251.31 75.4655H259.182L250.033 61.3127C252.8 61.0342 255.017 59.9926 256.683 58.1926C258.349 56.3926 259.182 54.1321 259.182 51.4056L259.219 51.408ZM252.252 51.7751C252.252 52.7902 251.923 53.6087 251.268 54.2377C250.613 54.8663 249.77 55.1856 248.742 55.1856H230.596V47.3182H248.742C249.77 47.3182 250.611 47.6303 251.268 48.2665C251.926 48.9022 252.252 49.7183 252.252 50.7287V51.7775V51.7751Z" fill="white"/>
<path d="M56.7036 0L0 75.4655L56.7036 107.712L113.392 75.4631L56.7036 0ZM53.9414 99.8711L9.548 74.6161L53.9414 49.2721V99.8711ZM53.9414 43.0006L14.1758 65.7L53.9414 12.78V43.02V43.0006ZM59.4461 12.7848L99.2089 65.7194L59.4461 42.9983V12.7872V12.7848ZM59.4461 49.2697L103.844 74.6399L59.4485 99.8976V49.2721L59.4461 49.2697Z" fill="url(#paint0_linear_4012_19969)"/>
<path d="M62.2033 59.1911V65.287L73.7925 71.911H62.2033V77.1911L93.6119 77.1983L62.2033 59.1983V59.1911ZM51.1889 89.9905V83.9279L39.2708 77.148L51.1889 77.1528V71.8726L19.3688 71.8631L51.1889 89.9592V89.9905Z" fill="white"/>
</g>
<defs>
<linearGradient id="paint0_linear_4012_19969" x1="56.696" y1="117.259" x2="56.696" y2="3.80159" gradientUnits="userSpaceOnUse">
<stop offset="0.165" stop-color="#660DAC"/>
<stop offset="1" stop-color="#00B5F4"/>
</linearGradient>
<clipPath id="clip0_4012_19969">
<rect width="341" height="108" fill="white"/>
</clipPath>
</defs>
</svg>
